#!OML:ASF H:\Pregnant\Project 1\Capture day 1\Session 1\femalepreg.ASF
:FULLY-SPECIFIED
:DEGREES
1403
root 2.29071 10.4229 22.2396 -105.468 9.05123 187.579
lowerback 9.42353 0.0135367 -4.1612
upperback 5.62435 0.131462 -1.92616
thorax 0.570835 0.168672 0.335461
lowerneck -52.1492 9.86616 10.363
upperneck 5.57001 10.0136 -1.92214
head 8.65454 6.01104 -0.101111
rclavicle 1.43125e-014 2.25993e-014
rhumerus 67.9344 19.7133 -58.5373
rradius 25.5108
rwrist 10.5889
rhand -44.4594 -21.3155
rfingers 7.12502
rthumb -17.2634 309.431
lclavicle 1.43125e-014 2.25993e-014
lhumerus 47.8485 -0.207244 35.4745
lradius 30.4619
lwrist 43.8042
lhand -30.8014 -382.633
lfingers 7.12502
lthumb -4.09134 7.30778
rfemur -31.0284 22.2283 14.9317
rtibia 22.6269
rfoot -35.3625 -26.224
rtoes -36.5341
lfemur -153.301 -2.38374 -41.5177
ltibia 46.7653
lfoot 27.602 -10.2924
ltoes 0.878693
1404
root 2.29563 10.4477 22.2792 -105.244 8.63106 187.807
lowerback 9.52772 -0.022678 -4.02635
upperback 5.86004 0.123048 -1.91966
thorax 0.759782 0.17141 0.267516
lowerneck -52.1478 9.91932 10.4844
upperneck 5.77405 9.95701 -1.88295
head 8.73111 5.97534 -0.10649
rclavicle -6.36111e-015 2.77056e-014
rhumerus 68.7125 19.1955 -58.4108
rradius 25.5696
rwrist 10.4615
rhand -44.241 -21.4416
rfingers 7.12502
rthumb -17.0532 309.287
lclavicle -6.36111e-015 2.77056e-014
lhumerus 48.5925 1.24142 36.3326
lradius 30.3178
lwrist 43.2879
lhand -30.5024 -383.239
lfingers 7.12502
lthumb -3.80259 6.70672
rfemur -31.7189 22.2929 15.3825
rtibia 23.1484
rfoot -35.1819 -26.1485
rtoes -36.2877
lfemur -153.287 -2.39251 -41.6198
ltibia 46.4116
lfoot 27.0633 -9.51313
ltoes -2.09497
1405
root 2.30049 10.4714 22.3177 -105.022 8.20793 188.03
lowerback 9.62767 -0.0504751 -3.88537
upperback 6.08832 0.126093 -1.91524
thorax 0.943097 0.18058 0.192986
lowerneck -52.1594 9.95726 10.5906
upperneck 5.99095 9.8875 -1.84301
head 8.81283 5.93313 -0.111558
rclavicle -4.45278e-014 -2.82274e-014
rhumerus 69.4877 18.6619 -58.2291
rradius 25.6163
rwrist 10.3154
rhand -44.0059 -21.5949
rfingers 7.12502
rthumb -16.8269 309.114
lclavicle -4.45278e-014 -2.82274e-014
lhumerus 49.3863 2.62089 37.2277
lradius 30.1481
lwrist 42.676
lhand -30.1155 -383.794
lfingers 7.12502
lthumb -3.42904 6.15852
rfemur -32.3807 22.3478 15.8345
rtibia 23.6252
rfoot -34.9898 -26.0532
rtoes -36.0715
lfemur -153.381 -2.41723 -41.7286
ltibia 46.3519
lfoot 26.4987 -8.61551
ltoes -4.89303
1406
root 2.30532 10.4945 22.3555 -104.805 7.76853 188.24
lowerback 9.73611 -0.0848681 -3.74651
upperback 6.29765 0.117122 -1.88678
thorax 1.10246 0.183485 0.145443
lowerneck -52.1625 9.9934 10.666
upperneck 6.22481 9.82967 -1.80613
head 8.9009 5.89252 -0.111707
rclavicle 1.11319e-014 2.55935e-014
rhumerus 70.3231 18.1645 -57.8442
rradius 25.6603
rwrist 10.032
rhand -43.7489 -21.7959
rfingers 7.12502
rthumb -16.5795 308.892
lclavicle 1.11319e-014 2.55935e-014
lhumerus 50.1582 3.9388 38.1626
lradius 29.9673
lwrist 41.9831
lhand -29.7123 -384.336
lfingers 7.12502
lthumb -3.03963 5.62217
rfemur -33.014 22.3883 16.2976
rtibia 24.0675
rfoot -34.8005 -25.9406
rtoes -35.8904
lfemur -153.597 -2.48372 -41.8473
ltibia 46.6533
lfoot 25.9098 -7.72527
ltoes -7.10509
1407
root 2.31038 10.5184 22.3931 -104.596 7.32382 188.424
lowerback 9.84107 -0.135855 -3.60842
upperback 6.49932 0.0852784 -1.84175
thorax 1.25646 0.174857 0.117423
lowerneck -52.1935 10.0284 10.7031
upperneck 6.47891 9.78742 -1.76221
head 8.99819 5.85809 -0.100222
rclavicle 4.77083e-015 -5.31749e-015
rhumerus 71.1847 17.7116 -57.3617
rradius 25.7019
rwrist 9.70569
rhand -43.4803 -22.0221
rfingers 7.12502
rthumb -16.3209 308.645
lclavicle 4.77083e-015 -5.31749e-015
lhumerus 50.9005 5.19737 39.0774
lradius 29.7976
lwrist 41.2767
lhand -29.3064 -384.805
lfingers 7.12502
lthumb -2.64763 5.15864
rfemur -33.6274 22.4112 16.7537
rtibia 24.4845
rfoot -34.6066 -25.8167
rtoes -35.7459
lfemur -153.932 -2.60103 -41.9905
ltibia 47.3601
lfoot 25.2909 -7.00363
ltoes -8.44782
1408
root 2.31586 10.5436 22.4302 -104.382 6.8879 188.578
lowerback 9.92072 -0.202438 -3.4907
upperback 6.69856 0.0315734 -1.77609
thorax 1.42259 0.154131 0.12406
lowerneck -52.2514 10.0556 10.6935
upperneck 6.73429 9.76096 -1.71632
head 9.09749 5.82978 -0.0786133
rclavicle 4.45278e-014 4.96962e-014
rhumerus 72.0788 17.2986 -56.7744
rradius 25.7411
rwrist 9.34108
rhand -43.2003 -22.2679
rfingers 7.12502
rthumb -16.0512 308.377
lclavicle 4.45278e-014 4.96962e-014
lhumerus 51.6072 6.39486 39.9287
lradius 29.6584
lwrist 40.6234
lhand -28.8874 -385.154
lfingers 7.12502
lthumb -2.24293 4.81445
rfemur -34.2433 22.4123 17.1811
rtibia 24.8864
rfoot -34.4089 -25.6786
rtoes -35.6335
lfemur -154.39 -2.77602 -42.1701
ltibia 48.4807
lfoot 24.6395 -6.63087
ltoes -9.01999
1409
root 2.32184 10.5706 22.4673 -104.169 6.46528 188.689
lowerback 9.98462 -0.282517 -3.386
upperback 6.89784 -0.0402157 -1.70486
thorax 1.59812 0.123978 0.145239
lowerneck -52.3395 10.0713 10.6548
upperneck 6.9823 9.73806 -1.67152
head 9.19572 5.80328 -0.0527481
rclavicle -1.59028e-015 -5.56597e-015
rhumerus 72.9635 16.9034 -56.1614
rradius 25.7782
rwrist 8.98228
rhand -42.93 -22.5103
rfingers 7.12502
rthumb -15.7909 308.114
lclavicle -1.59028e-015 -5.56597e-015
lhumerus 52.2953 7.51397 40.6755
lradius 29.5579
lwrist 40.0597
lhand -28.4602 -385.36
lfingers 7.12502
lthumb -1.83042 4.61212
rfemur -34.8709 22.4018 17.5647
rtibia 25.2904
rfoot -34.2195 -25.5363
rtoes -35.5421
lfemur -154.944 -3.0158 -42.3882
ltibia 49.9851
lfoot 23.9805 -6.62307
ltoes -8.87593
1410
root 2.32835 10.5994 22.5041 -103.952 6.06658 188.749
lowerback 10.0326 -0.379618 -3.30836
upperback 7.09869 -0.135335 -1.63539
thorax 1.78514 0.0815112 0.181552
lowerneck -52.4532 10.0886 10.6113
upperneck 7.21946 9.72262 -1.63153
head 9.29199 5.78107 -0.0264604
rclavicle -1.90833e-014 -1.68967e-015
rhumerus 73.8767 16.5082 -55.4252
rradius 25.8309
rwrist 8.51213
rhand -42.6632 -22.7575
rfingers 7.12502
rthumb -15.534 307.846
lclavicle -1.90833e-014 -1.68967e-015
lhumerus 52.9544 8.55639 41.274
lradius 29.5036
lwrist 39.6123
lhand -28.1528 -385.544
lfingers 7.12502
lthumb -1.53348 4.43059
rfemur -35.5221 22.3735 17.8899
rtibia 25.7135
rfoot -34.0487 -25.3936
rtoes -35.4743
lfemur -155.565 -3.3228 -42.6489
ltibia 51.8171
lfoot 23.3064 -6.93465
ltoes -8.27887
1411
root 2.33537 10.6299 22.5407 -103.734 5.70099 188.749
lowerback 10.0775 -0.482333 -3.24939
upperback 7.30376 -0.236772 -1.59744
thorax 1.97895 0.0367007 0.196009
lowerneck -52.5928 10.1084 10.6097
upperneck 7.43938 9.69187 -1.60591
head 9.38444 5.7546 -0.0138271
rclavicle -1.74931e-014 -1.25234e-014
rhumerus 74.7549 16.0579 -54.6944
rradius 25.8861
rwrist 8.01322
rhand -42.4164 -22.9835
rfingers 7.12502
rthumb -15.2963 307.602
lclavicle -1.74931e-014 -1.25234e-014
lhumerus 53.6268 9.48272 41.6842
lradius 29.4978
lwrist 39.2923
lhand -27.9636 -385.703
lfingers 7.12502
lthumb -1.35071 4.27229
rfemur -36.2048 22.3292 18.1409
rtibia 26.1711
rfoot -33.9085 -25.2558
rtoes -35.4151
lfemur -156.211 -3.69219 -42.9544
ltibia 53.9119
lfoot 22.6094 -7.40343
ltoes -7.11493
1412
root 2.34288 10.6622 22.5769 -103.517 5.3689 188.684
lowerback 10.129 -0.600287 -3.21523
upperback 7.50235 -0.359641 -1.586
thorax 2.16357 -0.0184968 0.198407
lowerneck -52.7485 10.1372 10.6392
upperneck 7.66424 9.65334 -1.5718
head 9.47979 5.72878 -0.0024418
rclavicle -3.65764e-014 1.0138e-014
rhumerus 75.6246 15.5714 -53.8858
rradius 25.9529
rwrist 7.39924
rhand -42.1951 -23.1952
rfingers 7.12502
rthumb -15.0831 307.374
lclavicle -3.65764e-014 1.0138e-014
lhumerus 54.2709 10.3056 41.9095
lradius 29.5302
lwrist 39.0862
lhand -27.7945 -385.765
lfingers 7.12502
lthumb -1.18745 4.21135
rfemur -36.9208 22.2673 18.3157
rtibia 26.6732
rfoot -33.8042 -25.1321
rtoes -35.3501
lfemur -156.844 -4.11418 -43.2982
ltibia 56.2097
lfoot 21.8572 -7.95385
ltoes -5.73109
1413
root 2.35092 10.6963 22.6125 -103.298 5.06978 188.549
lowerback 10.1881 -0.732304 -3.20503
upperback 7.69068 -0.502895 -1.59887
thorax 2.33421 -0.083726 0.19042
lowerneck -52.9113 10.1671 10.6868
upperneck 7.893 9.60358 -1.52257
head 9.57634 5.70239 0.0110992
rclavicle 1.11319e-014 -7.7526e-015
rhumerus 76.4476 15.0547 -53.0694
rradius 26.0288
rwrist 6.73974
rhand -42.0042 -23.386
rfingers 7.12502
rthumb -14.8992 307.17
lclavicle 1.11319e-014 -7.7526e-015
lhumerus 54.8919 11.0323 41.9993
lradius 29.5795
lwrist 38.95
lhand -27.6335 -385.761
lfingers 7.12502
lthumb -1.03191 4.21577
rfemur -37.6718 22.1835 18.4157
rtibia 27.2215
rfoot -33.716 -25.0463
rtoes -35.2868
lfemur -157.434 -4.57614 -43.6699
ltibia 58.6606
lfoot 20.9828 -8.64587
ltoes -4.60241
1414
root 2.3595 10.7323 22.6477 -103.07 4.80135 188.346
lowerback 10.2562 -0.879206 -3.21238
upperback 7.85471 -0.669496 -1.63582
thorax 2.47527 -0.160613 0.168987
lowerneck -53.0633 10.191 10.7398
upperneck 8.13037 9.53863 -1.44505
head 9.6737 5.67441 0.032663
rclavicle 1.59028e-014 -6.95746e-015
rhumerus 77.1799 14.5364 -52.347
rradius 26.1052
rwrist 6.12621
rhand -41.8482 -23.5581
rfingers 7.12502
rthumb -14.7489 306.987
lclavicle 1.59028e-014 -6.95746e-015
lhumerus 55.4767 11.6588 41.9564
lradius 29.6322
lwrist 38.8758
lhand -27.5899 -385.827
lfingers 7.12502
lthumb -0.989789 4.15019
rfemur -38.4639 22.0721 18.4432
rtibia 27.8112
rfoot -33.641 -25.002
rtoes -35.2198
lfemur -157.964 -5.06155 -44.0543
ltibia 61.2245
lfoot 19.9309 -9.50228
ltoes -4.06413
1415
root 2.36852 10.7701 22.6829 -102.819 4.55334 188.077
lowerback 10.32 -1.03724 -3.22117
upperback 7.99299 -0.85334 -1.69722
thorax 2.59161 -0.24571 0.124225
lowerneck -53.201 10.2 10.7968
upperneck 8.36896 9.44911 -1.33972
head 9.76847 5.64106 0.0601862
rclavicle -1.90833e-014 -1.49089e-014
rhumerus 77.7892 14.0186 -51.8101
rradius 26.1715
rwrist 5.65004
rhand -41.728 -23.6822
rfingers 7.12502
rthumb -14.6331 306.854
lclavicle -1.90833e-014 -1.49089e-014
lhumerus 56.0473 12.1839 41.8102
lradius 29.6751
lwrist 38.8319
lhand -27.7211 -386.056
lfingers 7.12502
lthumb -1.11655 3.92101
rfemur -39.3034 21.9388 18.4017
rtibia 28.433
rfoot -33.5707 -25.0124
rtoes -35.1406
lfemur -158.427 -5.55064 -44.4182
ltibia 63.8677
lfoot 18.3138 -11.1389
ltoes -7.60236
1416
root 2.37802 10.8091 22.7177 -102.525 4.3326 187.751
lowerback 10.3532 -1.19985 -3.25197
upperback 8.10285 -1.04781 -1.77063
thorax 2.69502 -0.337552 0.0797375
lowerneck -53.3073 10.185 10.8429
upperneck 8.59251 9.33533 -1.2113
head 9.85327 5.60111 0.0926926
rclavicle -1.27222e-014 -1.90833e-014
rhumerus 78.295 13.501 -51.4161
rradius 26.2371
rwrist 5.28001
rhand -41.6195 -23.7912
rfingers 7.12502
rthumb -14.5286 306.738
lclavicle -1.27222e-014 -1.90833e-014
lhumerus 56.6048 12.6224 41.5827
lradius 29.7068
lwrist 38.8015
lhand -27.9481 -386.32
lfingers 7.12502
lthumb -1.33578 3.65527
rfemur -40.2087 21.7843 18.283
rtibia 29.0765
rfoot -33.4921 -25.0725
rtoes -35.0411
lfemur -158.83 -6.01704 -44.7411
ltibia 66.5647
lfoot 16.5026 -12.6235
ltoes -10.6529
